<svg width="27" height="59" viewBox="0 0 27 59" fill="none" xmlns="http://www.w3.org/2000/svg">
<g clip-path="url(#clip0_111_1353)">
<path d="M19.2899 56.34C19.3169 55.1309 19.2899 52.3099 19.2899 51.2755C19.2899 49.5157 18.1401 48.2664 18.1401 48.2664C18.4782 48.2664 27.0003 48.1724 27.0003 38.9839C27.0003 35.3568 25.093 33.4627 25.093 33.4627C25.093 33.4627 26.1075 29.6073 24.7548 27.9684C23.2398 27.8072 20.5344 29.4058 19.3846 30.1312C19.3846 30.1312 17.5719 29.4058 14.5148 29.4058C11.4577 29.4058 9.64508 30.1312 9.64508 30.1312C8.49528 29.4058 5.78987 27.8072 4.27484 27.9684C2.92213 29.6073 3.93666 33.4627 3.93666 33.4627C3.93666 33.4627 2.02935 35.3568 2.02935 38.9839C2.02935 48.347 10.8896 48.2396 10.8896 48.2396C10.8896 48.2396 9.99678 49.2471 9.79388 50.7248C9.19869 50.9263 8.34648 51.1815 7.54839 51.1815C5.61402 51.1815 4.1531 49.3411 3.62554 48.4679C3.09799 47.6216 2.01582 46.9231 1.01482 46.9231C0.351993 46.9231 0.0273438 47.2589 0.0273438 47.635C0.0273438 48.0246 0.974238 48.2799 1.56943 48.9784C2.88155 50.4561 2.8545 53.7607 7.46722 53.7607C8.02183 53.7607 8.98225 53.6533 9.76682 53.5324V56.3131C9.79388 56.6489 9.33396 57.6161 8.96873 58.1804C10.7408 58.7311 12.621 58.9998 14.5419 58.9998C16.4627 58.9998 18.37 58.7311 20.1421 58.1804C19.6551 57.5624 19.2899 56.6355 19.3169 56.34H19.2899Z" fill="#0058AB"/>
</g>
<defs>
<clipPath id="clip0_111_1353">
<rect width="27" height="59" fill="white"/>
</clipPath>
</defs>
</svg>
