<svg width="32" height="32" viewBox="0 0 32 32" fill="none" xmlns="http://www.w3.org/2000/svg">
<path d="M5.61433 9.33301H5.64899C7.50899 9.33301 8.66699 7.99967 8.66699 6.33301C8.63233 4.62967 7.50899 3.33301 5.68433 3.33301C3.85966 3.33301 2.66699 4.62967 2.66699 6.33301C2.66699 7.99967 3.82433 9.33301 5.61433 9.33301ZM2.66699 11.333H8.66699V28.6663H2.66699V11.333ZM29.3337 17.6663C29.3337 14.1683 26.4983 11.333 23.0003 11.333C20.965 11.333 19.159 12.297 18.0003 13.789V11.333H12.0003V28.6663H18.0003V18.6663C18.0003 17.1937 19.1943 15.9997 20.667 15.9997C22.1397 15.9997 23.3337 17.1937 23.3337 18.6663V28.6663H29.3337C29.3337 28.6663 29.3337 18.6363 29.3337 17.6663Z" fill="#0058AB"/>
</svg>
