<?xml version="1.0" encoding="UTF-8"?>
<svg id="Camada_1" data-name="Camada 1" xmlns="http://www.w3.org/2000/svg" viewBox="0 0 256 78.89">
  <defs>
    <style>
      .cls-1 {
        fill: rgba(255, 255, 255, .8);
      }
    </style>
  </defs>
  <path class="cls-1" d="m22.97,62.69h152c12.5-13.5-4-34-26-26-6.5-15-20-18-33-14-8-30-54-31.5-62.5,3-9.38-2.69-16.88,0-20.5,7.5,0,0-4-1.5-10,0-17,7-14.88,28.31,0,29.5Z"/>
  <path class="cls-1" d="m84.97,70.69h152c12.5-13.5-4-34-26-26-6.5-15-20-18-33-14-8-30-54-31.5-62.5,3-9.38-2.69-16.88,0-20.5,7.5,0,0-4-1.5-10,0-17,7-14.88,28.31,0,29.5Z"/>
</svg>